<?xml version="1.0" encoding="utf-8"?>
<!-- Generator: Adobe Illustrator 27.4.1, SVG Export Plug-In . SVG Version: 6.00 Build 0)  -->
<svg version="1.1"
	 id="svg2996" xmlns:rdf="http://www.w3.org/1999/02/22-rdf-syntax-ns#" xmlns:sodipodi="http://sodipodi.sourceforge.net/DTD/sodipodi-0.dtd" xmlns:inkscape="http://www.inkscape.org/namespaces/inkscape" xmlns:dc="http://purl.org/dc/elements/1.1/" xmlns:cc="http://creativecommons.org/ns#" xmlns:svg="http://www.w3.org/2000/svg" inkscape:version="0.91 r13725" sodipodi:docname="India-map-en.svg"
	 xmlns="http://www.w3.org/2000/svg" xmlns:xlink="http://www.w3.org/1999/xlink" x="0px" y="0px" viewBox="0 0 1519 1254.5"
	 style="enable-background:new 0 0 1519 1254.5;" xml:space="preserve">
<style type="text/css">
	.st0{display:none;filter:url(#filter3827);}
	.st1{display:inline;fill:#FAD076;stroke:#000000;}
	.st2{fill:none;stroke:#9F2B00;stroke-width:8;}
</style>
<filter  color-interpolation-filters="sRGB" id="filter3827">
	<feBlend  id="feBlend3829" in2="BackgroundImage" mode="multiply"></feBlend>
</filter>
<sodipodi:namedview  bordercolor="#666666" borderopacity="1" gridtolerance="10" guidetolerance="10" id="namedview325" inkscape:current-layer="svg2996" inkscape:cx="649.96233" inkscape:cy="1031.0146" inkscape:pageopacity="0" inkscape:pageshadow="2" inkscape:window-height="997" inkscape:window-maximized="1" inkscape:window-width="1680" inkscape:window-x="-8" inkscape:window-y="-8" inkscape:zoom="0.5" objecttolerance="10" pagecolor="#ffffff" showgrid="false">
	</sodipodi:namedview>
<g id="layer17" class="st0">
	<path id="path3825_00000073701251370209662020000015354409838301809288_" class="st1" d="M663.4,739.4c0,0,5.9,5,6.9,6.9
		c1.1,2,2.8,7.2,8.5,6.3c5.6-0.9,9.5,0.7,10.4,2.2c0.9,1.5,2.6,1.7,2.6,1.7s4.1,8.7,5.6,10s3.7,2.8,3.7,3.5s-2.6,1.5-3,2.8
		c-0.4,1.3-0.9,2.2-0.9,3.3s3.5,1.5,3.5,1.5s2.2-2.8,3-3.3s2.2-1.5,2.4,0c0.2,1.5-1.1,2,1.1,1.7s2.8-2.6,3.5-0.2
		c0.7,2.4,0,3.7-0.9,5s1.1,3.9,1.1,5.4s0.7,2.2,1.1,3c0.4,0.9-0.2,3.5,0.4,5.4c0.7,2,1.7,4.1,3.7,3.3s3.3-2.8,4.1-3
		c0.9-0.2,1.1-0.4,4.6,0.4c3.5,0.9,4.8,1.1,6.7,1.7c2,0.7,4.8,0.7,4.8,0.7s-0.2-2.8-0.2-5.9c0-3,3.9-5.9,3.9-5.9s-0.2-7.6,0-10.2
		c0.2-2.6,0.2-4.6,4.8-5s17.8-13,19.1-15.2c1.3-2.2,4.1-2.6,2.6-4.1c-1.5-1.5-2.8-3.9-2.8-3.9s1.5-2,2.4-1.3c0.9,0.7,5,3,6.7-1.3
		c1.7-4.3,2.6-5.9,5.2-7.4c2.6-1.5,3.5-3,3.3-6.1c-0.2-3,1.7-2.4-0.2-5c-2-2.6-1.5-2.2-2.4-3.3s2.2-11.9,0.9-14.1
		c-1.3-2.2-8-2.8-8.7-6.9s-0.2-6.5-0.2-6.9s1.3,0.2-0.4-1.1c-1.7-1.3,0.7-3.5,0.7-4.3c0-0.9,0.7-2.4-0.7-3c-1.3-0.7-10.2-3-11.1-5.9
		s-3-6.5,2.2-7.8c5.2-1.3,17.4,1.5,19.1,3c1.7,1.5,2.4,3.5,2.8,4.6s1.5,3.3,5.4,2.4c3.9-0.9,5.2-1,6.3,0.7c1.1,1.7,7.2,4.3,7.8,3
		s3.5-1.7,3.5-1.7s0.7-1.1,0.4-2c-0.2-0.9-1.1-1.1-1.3-3.3c-0.2-2.2,0.9-5.6-0.4-5.6s-6.9,0.4-8.2-0.4c-1.3-0.9-6.1-2-6.7-4.6
		c-0.7-2.6-1.7-6.3-1.7-6.9s0-4.8-0.2-7.6s0.7-3.9-0.2-5s-1.7-5.2-1.7-5.2s0.9-12.8,0-14.3s-1.7-3.7-0.9-3.9s3,0.4,4.6,1.5
		c1.5,1.1,4.1-0.4,4.1-0.4s-1.1-2.4-1.3-4.3s1.3-2.2,2.2-2.8s3.3-7.4,3.3-9.8s3.9-4.1,7.6-3.3s6.9-1.1,6.9-2s3.7,0,6.1,3
		s6.1,2.2,7.4-3.5s3.9-3.3,4.6-5.6c0.7-2.4,0-4.8,2.4-4.6s5.4,2.6,5.2,0.2s-5-0.9-4.6-7.2s0.9-4.8,2.2-6.3s1.1-5.6,2.2-7.2
		s0.9-2.6,3.7-1.7s3.9-1.3,3.9-2.4c0-1.1,0-1.5,1.5-1.7s2.6-1.5,0.9-3.9c-1.7-2.4-4.1-4.6-2.8-5.6c1.3-1.1,4.3-0.2,4.3-0.2
		s-0.9-5.2,1.1-7.4s2.6-3.9,6.9-3.7s9.1-2.2,10.6-4.1c1.5-2,2.8-2,2.4-4.1s-2.8-5.6-1.3-7.2s8.5-3.5,8.5-3.5l12.6-18.7
		c0,0-8-34.1-10.6-38c-2.6-3.9-10.4-15.6-22.1-24.3c-11.7-8.7-25.8-17.1-30.6-15.4s-24.3,13.2-38.6,11.9
		c-14.3-1.3-54.2,11.5-49.7,18.7c4.6,7.2-5.9,13.7,3.3,22.4c9.1,8.7,11.9,34.5,8.9,36.5s-31,8.2-39.9,17.1s-15.4,25.6-18.2,30.8
		s-0.2,23.2-5.6,31.7c-5.4,8.5-15,5.4-16.3,18c-1.3,12.6,6.3,49.7,5,58.4c-1.3,8.7-2.2,36.5-4.6,40.6
		C668.7,722.5,663.5,739.4,663.4,739.4L663.4,739.4z"/>
</g>
<path class="st2" d="M272.4,14.5l10.1,5.7l16.4-2l2.3-6.3l9.7-2.3l6.2-8.2L327.8,0l0.5,11l8.3,3.3l6.3,9.1l-4.4,20.2l1.4,16l7.6,1.7
	l1.2,7.2l42.9,14.2l20.4-3.9l28.8,13l10.6,20.9l19.3,9.7l14.7-0.9l0.4,5.2l11-2.8l6.8,4l12.9-2.2l14.7,4.3l11.2-4.5l11.9,2.9
	l39.6-3.8l14.9,1.1l15.4,8.2l8.5-4.2l11.2,22.8l-2.7,4.2l5.2,9.9l-1.1,3.5l-9.8,1.2l10.8,15.8l16.5-2l3.6,3.8l17.5-0.4l14.1-7.4
	l6.4-16.1l25.1,0.7l7-17.8l-6.7-10.5l29.5-26.1l1.4-4.6l-5.3-6.5l4.6-3.5l1.4-11.4l7.1,0.9l3.4-4.4l9,2.8l31.6-24.3l15.8,1.9
	l2.5-2.8l6.6,6.6l3.2-4.8l10.8-1.3l0.6-7.7l34.9-1.7l12.3,14l5.4,14.7l-0.1,12.8l6.7,3.9l-7.4,2.6l-20.2-5.3l-7.5,4.7l3.9,12
	l5.7,3.2l3.3,15.7l18,2.6l3.8-0.5l-0.6-5.3l9.1,0l3,4.3l4.4-5.1l2.6,7.5l5.3-1.1l3-4.2l8-1l1.1-4.3l15.2,6.9l10.5-1.8l42.5-22.2
	l2.1-12l16.3-2.4l-0.6-4.7l7,4.6l6-3.8l4.5,2.4l3.4-8l8,3.3l1.4,19.9l14.5-5.3l10.7,2.5l3.4,5.7l24.9,4.4l4.9-5.8l4.7,5.3l2.3-4.4
	l17.6,0.8l2.9-3.1l6.6,2.6l1.6-5.2l-6.7-8.2l4.3-1.1l-2.7-6.4l15-5.3l2.8,3.4l14.5,0.5l11-12.2l13.3,1.9l1.6-14.5l22.2,9l8.4,0.9
	l3.9-3.4l13.4,3.4l8.9,25.8l20.5-2.6l15.7-9l23,14.2l10.8,1.3l3.8-6.4l10.5,4.4l12.9-4l9.5-10.4l13.5-5.4l13.3,2.8l20.4,19.7
	l7.5,16.4l-4.1,6.1l2.6,6.1l6.8,0.9l1.5-6l6.9,0.9l19.9,14.5l11.7-1.2l3,6.4l-6.9,9.5l-32.8,15.3l-4.4,15l2.6,12l-4.4,5.4l5.9,15.3
	l15.9-0.4l0.7,33.3l6.4,16.1l-13.4,5.7l-4.8,7.4l5.6,6.3l10.2-5.4l10.1,1.7l-6.7,41.1l5.9,12.2l-14,5.3l-5.8,7.3l-23.6,5.5l5.7,10.1
	l-5.2,5.4l1.4,3.7l19.2,1l7.8,5.7l1.1,8.7l-0.1,15.4l-4.6,11.1l-7.4,0.6l-6.8-4.9l-6.9,4l0.3,5.2l13.8,1.4l2.7,5.9l-12.1,11.5
	l-6.3-1.2l-0.5,4.2l10.7,0.3l4.7,4l-1.6-10.3l13.5,1.1l-0.5,8.8l23.3,16.2l-1.7,15.7l11.8,0.8l8.4,7.9l11.3,1.1l3.3,6.6l6.2,2
	l2.4,10.5l-19.2,7.6l10.5,12.9l-17.7,14.5l-11.2,0.6l-3.1-8.4l-11.4,3.8l-7.8-18.4l-17,12.9l-7.1,14.5l-9.9,4.3l0.6,9.8l-11.4,9.3
	l-0.5,13l-10,17.1l0,11.4l14.9,20.5l-13.3,11.5l-6.3,1l4.7,8.2l-12.1,4l-2.4,4.3l-5.7-4l-8.7,3.9l-18.2-17.7l-14.8-3.4l-7-9.1
	l8.3-5.5l-0.8-31.8l-3.4-5l-10.4,2.5l-0.3-13.6l15.7-13l-4.2-10.9l7.7-13.9l2.1-20.3l-6.1-12.4l-20.7-14.2L1313,481l-8.3-1.9
	l-18.6,5.5l-7.7,14l-8.4-3.2l-1.8-5.6l-13.3,10l-18.7-14.5l-10.1,1.1l-1.7-4.8l-11.2-4.4l-1.3,16.8l-5.5,6.9l3,4.7l-8.3,1.4
	l-13.8-13.2l-15.6-2.4l-4.7-4.3l-7.1,2l4.8-6.5l-2.1-12.6l-9.8-3.6l-10.5,2.2l-2.4-20l-11.2-4l-12.6,2.4l-20.8-10l-14.3-0.8l-6,5.6
	l-3.3-4.6l-14.5-3.9l-2.5-8.4l-8.8-0.8l-3.1-6.3l-4.7,13l8.3,2l5.3,11.4l-4.1,13.2l-11,4.7l-3,5.2l7.6,11.6l0,6.4l-5.9,2.7l5.5,20
	l-23.4,8.7l2.8,15.7l-5,18.7l-16.2-3.6L993,550l-1-5.7l-17.9-13.8l-16.2,7.7l0.2,3.5l8.1,3.3l-7.1,2.3l-3.8,11.4l2.2,3.2l-5,8.8
	l3.1,8.9l-8.4-2.3l-1,9.9l-6.6-2.1l-0.8,6.5l1.8,9.2l9.2-0.2l-0.8,6.4l7.6-0.6l-2.4,8l7.6,0.5l11.3,16.8l-19.4,2.9l-9.4,24.1
	l-5.3-4.5l-4.6,6.1l0.7,23.6l-14.6,5.4l-1.6-5l-9.5,1l0.7,14.3l-4.5-1.9l-5.6,4l7.2,3.5l-10.9,3.5l5.4,1.9l-6.6,13.4l8.8,6.1
	l-3.1,5.2l-7.5-3l0.1,5.5l-8.3,3.6l-5.4-9.1l-14.3-0.8l9.5-15.2l-7.5-2.4l0-9.1l-5.1,3.4l-4.6-4.6l-14.2,8.8l0.9,7.4l-9.2,11.3
	l2,6.8l-6.6-0.6l-3.8,12.5l-10.1,4.2l2.5,8.2l-9.4,0.1l-4.6-6.1l-1.6,4.1l-6.7-5l-6.2,0.7l-5.8,13.4l8.4,3.7l-3.9,4.6l1.4,6.6
	l-6.8,1.2l-0.2,23l-21,9.1l-11.5-5.8l-0.6,8l9.3,5.9l-4.7,7.6l-8.7,1l2.2,8.7l-5.4,2.1l-1.4,8.9l-5.1-1.5l-9-15.6l-7.6,12.8l0-11.2
	l-9.1,0.2l0,8.5l-6.9,0.3l0.5,10.2l-11.2,3.2l-2.4,7.8l-15.5,1.8l1.5,10.1l4.8,3.9l-4.2,5.4l5.8,0.2l-8.2,4.8l0.5,7.1l7.3-0.4
	l-2.1,11.5l8.5,1.1l-4.9,11.1l-5.4,0.3l-1.6-7.6l-12.5,3.8l-5.8-8.5l-13.3,5l0.6,10l-2.3-8.5l-7.7-4.9l-7.8,7l-4.5-4.7l-22.8,5.9
	l-6.9-5.7l-1.2-12.3l-4.7,6.1l-6.9-7.2l-4.1,10.2l-12-10l-8.5,1.8l-2.5-8.8l-7.7-3.8l-3.7,16.6l-6.9,1.7l1.2,6.4l5.2,1.4l-1.3,7.6
	l10,8.1l0.4,10.3l-6.3,7.4l9.3,14.7l0,6.1l-6.4,5.1l5.3,0.1l0.4,14.6l-5.5,1.8l-6.3-3.6l-0.2-6.5l-6.2-0.9l-1,8.5l-14.4,4l-4.5-8.2
	l-6.8,4.2l-6.7-2.5l-9.1,4.6l-10.5-0.4l-1,15.6l-12.3,6.5l-6-0.3l1.2-6.1h-9l-9.4-14.5l-10.8,4.4l-0.3-3.1l-17,0.1l-2.1,3l7.4,3.9
	l-0.6,5.3l-9.6,4.2l2.2,16.6l-12.7-0.2l-28.9,10.7l-0.4,7.8l-6.6,7.2l5.5,6.4l-8.8-0.4l-1.2,6l-11.5,4.6l-4.2-15.7l-9.9,1.3
	l-3.8-6.6l-0.9,10.8l-12.7,5l-2.5,9.8l-5-2.1l0.6-3.5l-6.7,0.7l-2.8,9.9l-7-8.2l1.7,7.9l-6,1.6l2.9,3.6l5.7-5.1l-0.7,8.4l7.9,1.3
	l0.7,10l4.9,1.2l-1.4,5.7l-3.4-5l-3.3,2.2l-0.5,10.4l4.7,6.5l-2.7,4.5l3.6-4.6l12.5,2.2l0.2,4.4l14.9,5.1l1.8,8.2l-5,7.9l0.6,11.5
	l-10.1-4.5l-12.3,11.1l4,3.4l8.5-4.2l6.3,3.1l-14.5,26.8l3.6,9.3l-3.3,0.2l-3.6-7.6l-5.5,7.6l8.3,1.5l-4.5,13.5l-13.4,6.6l-7.8-0.4
	l-4.2-8.5l-4.2,6.2l-13.6,6.8l0.6,7.6l-6.8,1.5l5.4,3.9l-18.1,8.8l-5.4-1.3l-5.4-6.4l-4.4-18.7l-11.6-1.5l-3.1-9.2l-6,11.5
	l-28.2,2.6l-5.9-4.1l4.8-1.6l-15.5-30.4l-14.9-4.8l-4.9-19l-5.1-3.5l2.3-3.3l-5.9-24.6l-8.7-31.3l-3.8-0.4l6.9-8l-7.3,1.5l-0.2-8.1
	l-9-14.2l0.3-8.3l4.6-1.9l-4.8-6.7l4.3-7.2l-3.3-0.6l-2-31.9l-6.3-16.5l3.2-18.1l-4.3-0.1l2.4-5l-5.4-2.9l8.1-9.9L110,964l-7.8-29.7
	l-6.3-6.3l6.1-0.8l1,4.1l3-5l-6.8-14.9l-7.4-4l7.1-6.6l-3.6-0.5L94.9,888l-8.6-9.7l5.7-5.2l-7.6-10.6L82,851.4l3.9-4.3l-8.6-17.8
	L75,812.1l-2.3,1.2L66.5,803l1.5-7.8l-8.9-13.8l2.4-4l-5.9-11l3.1-12.3l-10.5-4.9l0.8-11.9l5.4,0.3l3.1,7.4l16.1,3.8l-2.5,6.9l6,6.9
	l-1.4-15.5l-4.8-7.6l-11.4-0.6l-7.7-12.2l-6.8-3.6l2.3-6.2l-5.7-16.8l6.1-13.5l-13.5-30.2l2.6-21l8.7,2.4l4.5-6.9l5.5,7.4l2.3-3.9
	l1.1-11l-11.5,2.9l-3.4-10l9.2-1.3l-3.4-7.4l3-5.4l4.3,2.2l9.8-7.1l-5.4-0.5l-1.8-11.2l-5.6,0.2l-1.3,6l-8.5,7.1l-8.7-2.3L32.3,612
	l-6.8,6.5l2.9-9.9l-5.8-1.8l4.2-14.9l2.2,1.7l2.1-4.1l-4.1-0.6l2-10.1l-8.6-14.1L20,542.6l3.8-10.2l-7.6-8.7l-2.4-17l6.6-5.6
	l1.1-6.8l-4,4.3L9,491.8l-1-11.2l4.7-0.4l-9.4-38.5l-6.7-8.9l0.2-3.7l5.4-1.3L-1,414.4l9.6-7.8L7,387.3l5.5-13l11.8,2.3l0-4.6
	l6.1,0.8l-0.1-8.1l7.4-7.9l17.7,2.7l3,8.1l-2.5,8l2.9,3.5l5.2-4.3l-1.3,4.8l7.9,8.4l1.4-6.2l14.6,2.9l8.5,6.2l5.6-13.6l13.4-5.4
	l4.1-11.4l7.7,1.7l2.7-2.9l1.2,4.1l10.3-2.7l-1.2-28.7l-5.9-7.5l7.1-4.8l13.1-24.8l-3.5-0.6l-0.2-8l-7.5-2.3l-6.9-9.4l6.9-4.4l2.5-9
	l5.3-1.3l2.9,12.6l7.4-4l12.7,7.4l5.4,11.3l6.3,3.3l5.6-3.2l8.7,2.2l16.6-9.6l1.3-10.1l-4.2-5.3l7.6-0.1l4.1-7l6.5,1.2l5.3-3.7
	l-0.8-19.3l-9.2-19.8l2.1-8.5l-16.6-2.6l-1.6-5.3l-6.1,2.4l-6-8.9l1.9-11.6l-17.1,1.1l-13.2-11.8l4.6-1.6l4.3,8.6l8.3-3.9l10.2,2.8
	l0.9-5.7l14.9-1l1.8-18.9l11,1l10.4-7l0.8-20.8l2.9,2l14.7-5.4l3.4-12.4l7.7,6.7l3.7-3.1l17.3,0.9l1.2-4.1l3.8,3.3l14.4-6.5l0.2-9
	l-4.2-4.8l-6.6,5.9l-5.9-2.9l-5.5,3.7l-4-5.6l-21.5,0l-38.6,12.7l-6.7-20.4l-6.8-5.3l18.1-4l2-11l-12-12.4l2.5-5.5l-6.4-6.5
	L272.4,14.5z"/>
</svg>
