<?xml version="1.0" encoding="utf-8"?>
<!-- Generator: Adobe Illustrator 27.4.1, SVG Export Plug-In . SVG Version: 6.00 Build 0)  -->
<svg version="1.1"
	 id="svg2996" xmlns:rdf="http://www.w3.org/1999/02/22-rdf-syntax-ns#" xmlns:sodipodi="http://sodipodi.sourceforge.net/DTD/sodipodi-0.dtd" xmlns:inkscape="http://www.inkscape.org/namespaces/inkscape" xmlns:dc="http://purl.org/dc/elements/1.1/" xmlns:cc="http://creativecommons.org/ns#" xmlns:svg="http://www.w3.org/2000/svg" inkscape:version="0.91 r13725" sodipodi:docname="India-map-en.svg"
	 xmlns="http://www.w3.org/2000/svg" xmlns:xlink="http://www.w3.org/1999/xlink" x="0px" y="0px" viewBox="0 0 1519 1254.5"
	 style="enable-background:new 0 0 1519 1254.5;" xml:space="preserve">
<style type="text/css">
	.st0{display:none;filter:url(#filter3827);}
	.st1{display:inline;fill:#FAD076;stroke:#000000;}
	.st2{fill:none;stroke:#9F2B00;stroke-width:6;stroke-miterlimit:10;}
</style>
<filter  color-interpolation-filters="sRGB" id="filter3827">
	<feBlend  id="feBlend3829" in2="BackgroundImage" mode="multiply"></feBlend>
</filter>
<sodipodi:namedview  bordercolor="#666666" borderopacity="1" gridtolerance="10" guidetolerance="10" id="namedview325" inkscape:current-layer="svg2996" inkscape:cx="649.96233" inkscape:cy="1031.0146" inkscape:pageopacity="0" inkscape:pageshadow="2" inkscape:window-height="997" inkscape:window-maximized="1" inkscape:window-width="1680" inkscape:window-x="-8" inkscape:window-y="-8" inkscape:zoom="0.5" objecttolerance="10" pagecolor="#ffffff" showgrid="false">
	</sodipodi:namedview>
<g id="layer17" class="st0">
	<path id="path3825_00000019679565052429584340000003864990821343668897_" class="st1" d="M663.4,739.4c0,0,5.9,5,6.9,6.9
		c1.1,2,2.8,7.2,8.5,6.3c5.6-0.9,9.5,0.7,10.4,2.2c0.9,1.5,2.6,1.7,2.6,1.7s4.1,8.7,5.6,10s3.7,2.8,3.7,3.5s-2.6,1.5-3,2.8
		c-0.4,1.3-0.9,2.2-0.9,3.3s3.5,1.5,3.5,1.5s2.2-2.8,3-3.3s2.2-1.5,2.4,0c0.2,1.5-1.1,2,1.1,1.7s2.8-2.6,3.5-0.2
		c0.7,2.4,0,3.7-0.9,5s1.1,3.9,1.1,5.4s0.7,2.2,1.1,3c0.4,0.9-0.2,3.5,0.4,5.4c0.7,2,1.7,4.1,3.7,3.3s3.3-2.8,4.1-3
		c0.9-0.2,1.1-0.4,4.6,0.4c3.5,0.9,4.8,1.1,6.7,1.7c2,0.7,4.8,0.7,4.8,0.7s-0.2-2.8-0.2-5.9c0-3,3.9-5.9,3.9-5.9s-0.2-7.6,0-10.2
		c0.2-2.6,0.2-4.6,4.8-5s17.8-13,19.1-15.2c1.3-2.2,4.1-2.6,2.6-4.1c-1.5-1.5-2.8-3.9-2.8-3.9s1.5-2,2.4-1.3c0.9,0.7,5,3,6.7-1.3
		c1.7-4.3,2.6-5.9,5.2-7.4c2.6-1.5,3.5-3,3.3-6.1c-0.2-3,1.7-2.4-0.2-5c-2-2.6-1.5-2.2-2.4-3.3s2.2-11.9,0.9-14.1
		c-1.3-2.2-8-2.8-8.7-6.9s-0.2-6.5-0.2-6.9s1.3,0.2-0.4-1.1c-1.7-1.3,0.7-3.5,0.7-4.3c0-0.9,0.7-2.4-0.7-3c-1.3-0.7-10.2-3-11.1-5.9
		s-3-6.5,2.2-7.8c5.2-1.3,17.4,1.5,19.1,3c1.7,1.5,2.4,3.5,2.8,4.6s1.5,3.3,5.4,2.4c3.9-0.9,5.2-1,6.3,0.7c1.1,1.7,7.2,4.3,7.8,3
		s3.5-1.7,3.5-1.7s0.7-1.1,0.4-2c-0.2-0.9-1.1-1.1-1.3-3.3c-0.2-2.2,0.9-5.6-0.4-5.6s-6.9,0.4-8.2-0.4c-1.3-0.9-6.1-2-6.7-4.6
		c-0.7-2.6-1.7-6.3-1.7-6.9s0-4.8-0.2-7.6s0.7-3.9-0.2-5s-1.7-5.2-1.7-5.2s0.9-12.8,0-14.3s-1.7-3.7-0.9-3.9s3,0.4,4.6,1.5
		c1.5,1.1,4.1-0.4,4.1-0.4s-1.1-2.4-1.3-4.3s1.3-2.2,2.2-2.8s3.3-7.4,3.3-9.8s3.9-4.1,7.6-3.3s6.9-1.1,6.9-2s3.7,0,6.1,3
		s6.1,2.2,7.4-3.5s3.9-3.3,4.6-5.6c0.7-2.4,0-4.8,2.4-4.6s5.4,2.6,5.2,0.2s-5-0.9-4.6-7.2s0.9-4.8,2.2-6.3s1.1-5.6,2.2-7.2
		s0.9-2.6,3.7-1.7s3.9-1.3,3.9-2.4c0-1.1,0-1.5,1.5-1.7s2.6-1.5,0.9-3.9c-1.7-2.4-4.1-4.6-2.8-5.6c1.3-1.1,4.3-0.2,4.3-0.2
		s-0.9-5.2,1.1-7.4s2.6-3.9,6.9-3.7s9.1-2.2,10.6-4.1c1.5-2,2.8-2,2.4-4.1s-2.8-5.6-1.3-7.2s8.5-3.5,8.5-3.5l12.6-18.7
		c0,0-8-34.1-10.6-38c-2.6-3.9-10.4-15.6-22.1-24.3c-11.7-8.7-25.8-17.1-30.6-15.4s-24.3,13.2-38.6,11.9
		c-14.3-1.3-54.2,11.5-49.7,18.7c4.6,7.2-5.9,13.7,3.3,22.4c9.1,8.7,11.9,34.5,8.9,36.5s-31,8.2-39.9,17.1s-15.4,25.6-18.2,30.8
		s-0.2,23.2-5.6,31.7c-5.4,8.5-15,5.4-16.3,18c-1.3,12.6,6.3,49.7,5,58.4c-1.3,8.7-2.2,36.5-4.6,40.6
		C668.7,722.5,663.5,739.4,663.4,739.4L663.4,739.4z"/>
</g>
<path id="IN-TN" class="st2" d="M875.2,966.7l5.4,4.3l-4.3,6.4l2.2,4.3l25.8,23.6L872,984.9l-19.3-2.2l-2.2-5.4l3.2-3.2h10.7
	L875.2,966.7L875.2,966.7z M630.5,182.1l1.1,8.6l-8.6,7.5l17.2-2.2l5.4,8.6l17.2,9.7l20.4-1.1v-10.7h6.4l1.1-9.7h5.4l2.2,5.4
	l5.4-1.1v-14l8.6-6.4l9.7-34.3h4.3l-7.5-14l8.6-8.6l9.7,3.2l2.2-11.8l9.7,2.2l29-9.7l1.1,15h9.7l-7.5-4.3l4.3-7.5l15-2.2l20.4,14
	l19.3,1.1l8.6-18.2l6.4-4.3v-7.5l10.7-1.1l8.6,10.7L885,92l-1.1-7.5l17.2-5.4v-5.4l5.4-2.2l-2.2-3.2l-5.4,4.3l3.2-16.1l-11.8-5.4
	l11.8-4.3l23.6,3.2l3.2,9.7l7.5,5.4l19.3-8.6l1.1,11.8l5.4-1.1l-2.2,6.4l7.5-3.2l5.4,6.4l8.6-6.4l-14-10.7l7.5-7.5l5.4,4.3l4.3-5.4
	h11.8l17.2-7.5l6.4-8.6l-4.3-7.5l6.4-3.2v-7.5l7.5-2.2l2.2-6.4l6.4,1.1h-1.1l-9.7-2.2l1.1-4.3l17.2-2.2l18.2,14h17.2L1092,35
	l8.6,4.3V27.6l0,0l7.5,34.3L1097.4,93l-9.7,82.7l-21.5,71.9l-61.2,93.4l-10.7,29l0,0l-8.6-5.4l-14,12.9l-4.3-14l8.6-3.2l-4.3-3.2
	l-6.4,4.3l-6.4-9.7l-7.5,7.5l0,0l11.8,3.2l-4.3,8.6l6.4,2.2l4.3,8.6l-2.2,4.3l-7.5-6.4l-5.4,8.6l9.7,6.4l10.7-5.4v8.6l6.4-3.2
	l4.3,7.5l0,0l-9.7,55.8l18.2,48.3l3.2,86.9l0,0l-11.8-2.2l-4.3,4.3l-11.8-4.3l3.2,9.7l-9.7-2.2l5.4,12.9l18.2,6.4l1.1,11.8h8.6
	l6.4,118.1l-9.7,4.3h-20.3l-80.5-9.7l-20.4,12.9l-15,26.8v11.8l8.6,12.9l-25.8,23.6l-7.5,18.2l-29,33.3l-12.9,22.5l-8.6,29l9.7,17.2
	l27.9,23.6l29,4.3l-21.5,5.4l-31.1-3.2l-18.2,3.2l-32.2,10.7l-2.2,4.3h-13.9l-3.2,4.3l3.2,3.2l-18.2,6.4l-37.6,4.3l-45.1,34.3
	l-8.6,17.2l-2.2,24.7l6.4-1.1l9.7,6.4l-14,1.1l-14,21.5l-2.2,16.1l9.7-2.2l-2.2,20.4l-15,17.2l-3.2,8.6l4.3,2.2l-59,27.9l-12.9,16.1
	l-38.6,9.7l-5.4,14l-52.6-9.7l-49.4-39.7l0,0l5.4-5.4l8.6,2.2l-5.4-15l17.2-14l-5.4-12.9l14-2.2l4.3-8.6l-24.7-45.1l4.3,1.1l8.6-9.7
	l6.4-19.3L404,1060h-5.4v-7.5l-10.7-15l10.7-5.4l3.2-11.8l12.9-12.9l-3.2-8.6l6.4-6.4v-17.2l4.3-8.6h6.4l5.4-23.6l9.7-4.3L448,928
	l-10.7-6.4l-2.2-16.1l-3.2,7.5l-4.3-6.4l-10.7,6.4l-12.9-8.6h-9.7l8.6-24.7l4.3-1.1v-12.9l5.4-2.2l-5.4-6.4l3.2-7.5l-5.4-4.3
	l7.5-17.2l5.4-2.2l-2.2-15l-14-16.1l16.1-6.4l4.3-20.4l-7.5-3.2l1.1-7.5l-8.6-11.8l2.2-7.5l-12.9-1.1l-24.7,14l-3.2,8.6l-15,8.6
	l-15-3.2l-9.7-9.7v-5.4l-5.4,3.2l-4.3-4.3l4.3-15l-7.5-12.9l5.4-38.6l-5.4-9.7l15-1.1l-4.3-10.7l9.7-21.5l-2.2-6.4l-10.7-2.2
	l-5.4-12.9l-37.6-14l12.9-24.7l19.3-2.2l-12.9-1.1v-17.2l-10.7-5.4l7.5-15l-6.4-5.4l-16.1,10.7l-30.1-4.3l-7.5,5.4l-1.1-11.8
	l21.5-14v-14l-6.4,1.1l-14-7.5l-8.6-11.8l-17.2-5.4l-3.2,3.2l-9.7-6.4l-8.6,3.2l-3.2-23.6l9.7-6.4l6.4,6.4l11.8-4.3l6.4-8.6h9.7
	v-8.5l0,0l6.4,1.1l11.8-9.7l8.6,6.4l4.3,14h41.9l16.1,3.2l4.3,5.4l3.2-6.4l-5.4-9.7l16.1-32.2l14,4.3l3.2-8.6h7.5l6.4,4.3l-2.2,4.3
	l7.5-3.2l3.2,11.8l8.6,3.2l-1.1-11.8l27.9-4.3l3.2-4.3l9.7,1.1l9.7,8.6l7.5-4.3l14,6.4l8.6-20.4l-1.1-11.8l5.4,3.2l2.2-12.9
	l39.7-1.1l6.4-16.1l18.2-21.5l-9.7-14l-59-7.5l1.1-14l16.1-5.4l14-16.1l3.2-12.9l1.1-16.1L492,252l6.4-7.5l-6.4-2.2l-2.2-11.8
	l6.4-15l-2.2-8.6l14-4.3l5.4,5.4l5.4-5.4l6.4,2.2l15-27.9l-3.2-10.7l30.1-10.7l4.3,5.4l-5.4,7.5l3.2,2.2l4.3-8.6l8.6,12.9h4.3
	l3.2-11.8l7.5,1.1l16.1,17.2l17.2,1.1L630.5,182.1z"/>
</svg>
